<svg id="Layer_1" data-name="Layer 1" xmlns="http://www.w3.org/2000/svg" width="174.49mm" height="175.42mm" viewBox="0 0 494.62 497.26"><defs><style>.cls-1{fill:#f5eeec;stroke:#1d1d1b;stroke-miterlimit:10;stroke-width:6px;}.cls-2{fill:#1d1d1b;}.cls-3{fill:#fff;}</style></defs><title>logo</title><circle class="cls-1" cx="247.31" cy="248.63" r="226.76"/><path class="cls-2" d="M132.93,394.55V294.88S101.77,293,82,269.8s-18.48-48.55-18.48-48.55-2.16-49.63,46.26-68.51c0,0,16.45-10.66,49.9-1.89,0,0,18.34-50.71,86.85-54.22,0,0,68.42-2.87,91.44,61.37,0,0,.17.6,1.38.16,0,0,11.48-4.61,22.45-4.43,0,0,39.29-3.33,59.61,31.91,0,0,19.33,27.43,3.68,63.08s-52.86,39.15-52.86,39.15l-10,.14V394.55s-.27,6-5.4,6.07-217.74,0-217.74,0A6.08,6.08,0,0,1,132.93,394.55Z"/><path class="cls-3" d="M148.12,385.51l.18-100.16a6.33,6.33,0,0,0-6.83-5.84c-6.48.09-20.77-1.62-30.84-6.11S78.08,246.87,78.71,217s26.79-45,26.79-45,24.28-18.7,56.74-4c0,0,7.1,1.53,9.71-7.19s17.17-32.37,44.23-42.89c0,0,32.28-13.67,65.1,1,0,0,32.45,12,42.34,43.88a60.38,60.38,0,0,1,2.88,9.35c.9,4.49,7.46,5.3,7.46,5.3s14.48-8.36,23.74-8.18A46.82,46.82,0,0,1,386.83,174a58.16,58.16,0,0,1,22.57,21.31s15.28,22.39-.94,53.37c0,0-9.49,15.59-30.62,22.7a117,117,0,0,1-24.72,1.35s-4.95-.27-5.67,5.84l-.18,106.9H311.49V316.37s-7.2-12.67-14.93.27l-.09,68.87H274.08l-.36-69.05s-6.38-12.58-14.83,0v69.05H236.16l-.2-69.32s-7.1-12-15,.27v69.05H198.29l-.09-69.41s-6.47-11.6-14.75.18l-.08,69.23Z"/><path class="cls-2" d="M245.94,124.05s-4.67,2.79,0,6.75c0,0,31.29-1.89,48,17.8s21.22,49.18,21.22,49.18l1.53,6.74a4.88,4.88,0,0,0,7.19.63s19.69-19.33,45.95-12.85,29.67,28,29.67,28a28.3,28.3,0,0,1,.9,5.21s3.95,5.31,6.92,0c0,0-1.17-23.28-19.6-33.62A49.62,49.62,0,0,0,359.86,184c-16.1.54-23.2,4.5-23.2,4.5a73.45,73.45,0,0,0-13.57,7.55l-.66.32-.49-.7a155.67,155.67,0,0,0-14.5-41.34s-11.51-21.3-33.9-27.15C273.54,127.2,266.53,123.87,245.94,124.05Z"/></svg>
