<svg id="Layer_1" data-name="Layer 1" xmlns="http://www.w3.org/2000/svg" width="320mm" height="90mm" viewBox="0 0 907.09 255.12"><defs><style>.cls-1{fill:#1d1d1b;}.cls-2{fill:#f5eeec;stroke:#1d1d1b;stroke-miterlimit:10;stroke-width:6px;}.cls-3{fill:#fff;}</style></defs><title>logo_med_tekst</title><path class="cls-1" d="M336.54,173.1v-80l-18.9,82.48H311.3L291,94.49V156c0,11.31,1.8,17.1,11.45,17.1v2.49H276.4V173.1c9.66,0,11.45-5.79,11.45-17.1V84.14H279.3V81.66h22.34l18.07,72,16.41-72h22.21v2.48h-8.55v89h8.55v2.49H328V173.1Z"/><path class="cls-1" d="M424,175.59V173.1h8.68l-6.06-28.41H405.49l-2.2,12.14c-1.93,10.62-2.49,16.27,7.86,16.27v2.49H384.53V173.1c8.69,0,13.65-5.51,15.58-16.27l13.52-72.69H403V81.66H426.6l19.58,91.44h8v2.49ZM406,142.21h20L415.42,91.59Z"/><path class="cls-1" d="M480.38,175.59V173.1h8.55v-89h-8.55V81.66h33.1c24.83,0,25.52,11,25.52,46.89,0,31.73-.69,47-25.52,47Zm33.1-2.49c9.66,0,12.55-8.69,12.55-44.55,0-38.61-1.51-44.41-12.55-44.41H502.17v89Z"/><path class="cls-1" d="M603.4,163.31c.28-3.45.28-6.76.28-10.07V126.9H590v-2.35h26.34v51h-6.48l-4.28-12.28c0,9.93-7,14.07-12.55,14.07-20.69,0-21-15.72-21-48.83,0-31.72.13-48.41,25-48.41,7.59,0,18.07,1.11,18.07,3.45v30.76h-2.49c-.27-6.35-2.2-31.72-15.58-31.72-11,0-12,10.06-12,45.92s1,46.35,9.24,46.35C600.51,174.9,603,167.72,603.4,163.31Z"/><path class="cls-1" d="M653.6,175.59V173.1h8.56v-89H653.6V81.66H684v2.48H675.4v89h1.51c19.59-.82,21.11-17.37,21.11-35.3h2.48v36.68c0,.55-.14,1.11-1.11,1.11Z"/><path class="cls-1" d="M768.9,175.59V173.1h8.69l-6.07-28.41h-21.1l-2.2,12.14c-1.94,10.62-2.49,16.27,7.86,16.27v2.49H729.46V173.1c8.69,0,13.65-5.51,15.58-16.27l13.52-72.69H747.94V81.66h23.58l19.59,91.44h8v2.49ZM751,142.21h20L760.35,91.59Z"/><path class="cls-1" d="M825.31,175.59V173.1h8.55v-89h-8.55V81.66h33.1c24.83,0,25.52,11,25.52,46.89,0,31.73-.69,47-25.52,47Zm33.1-2.49c9.66,0,12.55-8.69,12.55-44.55,0-38.61-1.52-44.41-12.55-44.41H847.1v89Z"/><circle class="cls-2" cx="126.98" cy="126.62" r="107.32"/><path class="cls-1" d="M72.84,195.68V148.51s-14.74-.89-24.13-11.87a35.58,35.58,0,0,1-8.74-23S39,90.17,61.86,81.24c0,0,7.79-5,23.62-.9,0,0,8.68-24,41.11-25.66,0,0,32.38-1.36,43.27,29,0,0,.08.29.66.08a31.81,31.81,0,0,1,10.62-2.1s18.59-1.57,28.21,15.11a31.73,31.73,0,0,1,1.75,29.85c-7.41,16.87-25,18.53-25,18.53l-4.72.07v50.42s-.13,2.84-2.55,2.87-103.06,0-103.06,0A2.87,2.87,0,0,1,72.84,195.68Z"/><path class="cls-3" d="M80,191.41,80.12,144a3,3,0,0,0-3.24-2.76,40.94,40.94,0,0,1-14.59-2.9c-4.77-2.13-15.41-12.55-15.11-26.68S59.86,90.34,59.86,90.34s11.49-8.85,26.85-1.91c0,0,3.36.72,4.6-3.41s8.13-15.32,20.93-20.3c0,0,15.28-6.46,30.81.47,0,0,15.37,5.66,20,20.77a29.51,29.51,0,0,1,1.36,4.42c.42,2.13,3.53,2.52,3.53,2.52s6.85-4,11.23-3.88A22.22,22.22,0,0,1,193,91.32a27.58,27.58,0,0,1,10.68,10.09s7.24,10.59-.45,25.25a28.36,28.36,0,0,1-14.48,10.75,55.77,55.77,0,0,1-11.71.63s-2.34-.12-2.68,2.77l-.08,50.6H157.35V158.68s-3.4-6-7.06.13l0,32.6H139.65l-.17-32.69s-3-5.95-7,0v32.69H121.7l-.09-32.81s-3.37-5.66-7.11.12v32.69H103.78l0-32.86s-3.06-5.48-7,.09l-.05,32.77Z"/><path class="cls-1" d="M126.33,67.66s-2.21,1.32,0,3.19c0,0,14.81-.89,22.72,8.43s10,23.27,10,23.27l.72,3.2a2.31,2.31,0,0,0,3.4.29S172.54,96.9,185,100s14,13.23,14,13.23a13.59,13.59,0,0,1,.43,2.47s1.87,2.51,3.27,0c0,0-.55-11-9.27-15.91A23.51,23.51,0,0,0,180.24,96c-7.61.26-11,2.13-11,2.13a34.55,34.55,0,0,0-6.43,3.58l-.31.15-.23-.33A73.87,73.87,0,0,0,155.44,82S150,71.92,139.39,69.15C139.39,69.15,136.07,67.58,126.33,67.66Z"/></svg>
