<svg id="Layer_1" data-name="Layer 1" xmlns="http://www.w3.org/2000/svg" width="230mm" height="45mm" viewBox="0 0 651.97 127.56"><defs><style>.cls-1{fill:#1d1d1b;}</style></defs><title>tekst</title><path class="cls-1" d="M82,109.33v-80l-18.9,82.48H56.8L36.52,30.71V92.22c0,11.31,1.8,17.11,11.45,17.11v2.48H21.9v-2.48c9.66,0,11.45-5.8,11.45-17.11V20.36H24.8V17.88H47.14l18.07,72,16.41-72h22.21v2.48H95.28v89h8.55v2.48H73.49v-2.48Z"/><path class="cls-1" d="M169.48,111.81v-2.48h8.68L172.1,80.91H151l-2.2,12.14c-1.94,10.62-2.49,16.28,7.86,16.28v2.48H130v-2.48c8.69,0,13.65-5.52,15.58-16.28l13.52-72.69H148.51V17.88H172.1l19.58,91.45h8v2.48ZM151.54,78.43h20L160.92,27.81Z"/><path class="cls-1" d="M225.88,111.81v-2.48h8.55v-89h-8.55V17.88H259c24.83,0,25.52,11,25.52,46.9,0,31.72-.69,47-25.52,47Zm33.1-2.48c9.66,0,12.55-8.69,12.55-44.55,0-38.62-1.51-44.42-12.55-44.42H247.67v89Z"/><path class="cls-1" d="M348.9,99.53c.28-3.45.28-6.76.28-10.07V63.12H335.52V60.78h26.35v51h-6.48l-4.28-12.28c0,9.93-7,14.07-12.55,14.07-20.69,0-21-15.72-21-48.82,0-31.73.13-48.42,25-48.42,7.58,0,18.07,1.11,18.07,3.45V50.57h-2.49c-.27-6.34-2.2-31.72-15.58-31.72-11,0-12,10.07-12,45.93s1,46.34,9.24,46.34C346,111.12,348.49,104,348.9,99.53Z"/><path class="cls-1" d="M399.1,111.81v-2.48h8.55v-89H399.1V17.88h30.35v2.48h-8.56v89h1.52C442,108.5,443.52,92,443.52,74H446V110.7c0,.56-.14,1.11-1.11,1.11Z"/><path class="cls-1" d="M514.4,111.81v-2.48h8.69L517,80.91h-21.1l-2.2,12.14c-1.94,10.62-2.49,16.28,7.86,16.28v2.48H475v-2.48c8.69,0,13.65-5.52,15.58-16.28l13.52-72.69H493.44V17.88H517l19.59,91.45h8v2.48ZM496.47,78.43h20L505.85,27.81Z"/><path class="cls-1" d="M570.81,111.81v-2.48h8.55v-89h-8.55V17.88h33.1c24.83,0,25.52,11,25.52,46.9,0,31.72-.69,47-25.52,47Zm33.1-2.48c9.65,0,12.55-8.69,12.55-44.55,0-38.62-1.52-44.42-12.55-44.42H592.6v89Z"/></svg>
